<svg width="1023.9998" height="1023.9998" viewBox="0 0 270.93331 270.93331" version="1.1" id="svg1">
	<g id="layer1">
		<g id="g26">
			<path
				id="path5"
				style="color:#000000;display:inline;fill:#ffffff;stroke-width:0.954407;stroke-linecap:round;stroke-linejoin:round;-inkscape-stroke:none"
				d="m 73.819266,42.068749 a 4.4992847,5.6702096 0 0 0 -4.498434,5.671489 V 270.93333 H 201.6125 V 47.740238 a 4.4992847,5.6702096 0 0 0 -4.49999,-5.671489 z m 61.647394,50.132857 a 23.866824,23.866824 0 0 1 23.86728,23.866764 23.866824,23.866824 0 0 1 -23.86728,23.86676 23.866824,23.866824 0 0 1 -23.86675,-23.86676 23.866824,23.866824 0 0 1 23.86675,-23.866764 z"
			/>
			<g id="g25">
				<g
					id="g1"
					style="display:inline;fill:none;stroke:#000000;stroke-width:2.38668;stroke-dasharray:none;stroke-opacity:1"
				>
					<path
						style="display:inline;fill:none;fill-opacity:1;stroke:#000000;stroke-width:2.64583;stroke-linecap:round;stroke-linejoin:round;stroke-dasharray:none;stroke-opacity:1"
						d="M 145.133,67.3838 V 58.611 h 4.643 V 54.7818 M 125.8,67.3838 V 58.611 h -4.643 v -3.8292"
						id="path29"
					/>
					<g
						id="g27"
						style="display:inline;fill:none;stroke:#000000;stroke-width:2.38668;stroke-dasharray:none;stroke-opacity:1"
					>
						<path
							style="fill:none;stroke:#000000;stroke-width:2.38668;stroke-linecap:round;stroke-linejoin:round;stroke-dasharray:none;stroke-opacity:1"
							d="M 166.001,76.0808 V 49.8767 M 104.932,76.0808 V 49.8767"
							id="path2-5"
						/>
						<path
							style="fill:none;stroke:#000000;stroke-width:2.38668;stroke-linecap:round;stroke-linejoin:round;stroke-dasharray:none;stroke-opacity:1"
							d="m 166.18,62.5956 h 16.629 v 4.6665 M 104.753,62.5956 H 88.1239 v 4.6665"
							id="path3-6"
						/>
					</g>
					<path
						style="display:inline;fill:none;stroke:#000000;stroke-width:2.38668;stroke-linecap:round;stroke-linejoin:round;stroke-dasharray:none;stroke-opacity:1"
						d="m 177.407,91.2279 h 16.397 V 83.8835 M 93.5263,91.2279 H 77.1287 v -7.3444"
						id="path4-2"
					/>
					<path
						style="display:inline;fill:none;stroke:#000000;stroke-width:2.38668;stroke-linecap:round;stroke-linejoin:round;stroke-dasharray:none;stroke-opacity:1"
						d="m 179.815,140.821 v 14.926 h 12.848 v 4.716 M 91.1184,140.821 v 14.926 H 78.2697 v 4.716"
						id="path6-9"
					/>
					<g
						id="g29"
						style="display:inline;fill:none;stroke:#000000;stroke-width:2.38668;stroke-dasharray:none;stroke-opacity:1"
					>
						<path
							style="fill:none;stroke:#000000;stroke-width:2.38668;stroke-linecap:round;stroke-linejoin:round;stroke-dasharray:none;stroke-opacity:1"
							d="m 140.668,171.904 v 20.129 h 5.536 v 3.852 h 3.941 v 14.765 m -19.879,-38.746 v 20.129 h -5.537 v 3.852 h -3.941 v 14.765"
							id="path12-7"
						/>
						<path
							style="fill:none;stroke:#000000;stroke-width:2.38668;stroke-linecap:round;stroke-linejoin:round;stroke-dasharray:none;stroke-opacity:1"
							d="m 141.049,182.267 h 14.153 m -25.318,0 h -14.153"
							id="path15-0"
						/>
					</g>
					<g
						id="g28"
						style="display:inline;fill:none;stroke:#000000;stroke-width:2.38668;stroke-dasharray:none;stroke-opacity:1"
					>
						<path
							style="fill:none;stroke:#000000;stroke-width:2.38668;stroke-linecap:round;stroke-linejoin:round;stroke-dasharray:none;stroke-opacity:1"
							d="m 159.565,163.686 v 8.422 h 15.982 v 5.942 h 13.698 v -4.191 m -77.877,-10.173 v 8.422 H 95.3862 v 5.942 H 81.6884 v -4.191"
							id="path7-1"
						/>
						<path
							style="fill:none;stroke:#000000;stroke-width:2.38668;stroke-linecap:round;stroke-linejoin:round;stroke-dasharray:none;stroke-opacity:1"
							d="m 164.606,172.405 v 18.162 h -4.575 v 46.707 m -53.704,-64.869 v 18.162 h 4.575 v 46.707"
							id="path8-2"
						/>
						<path
							style="fill:none;stroke:#000000;stroke-width:2.38668;stroke-linecap:round;stroke-linejoin:round;stroke-dasharray:none;stroke-opacity:1"
							d="m 160.073,204.674 h 12.339 v 3.748 M 110.86,204.674 H 98.5217 v 3.748"
							id="path9-9"
						/>
					</g>
				</g>
				<path
					id="path13"
					style="color:#000000;display:inline;fill:#000000;fill-opacity:1;stroke-linecap:round;stroke-linejoin:round;-inkscape-stroke:none"
					d="m 135.467,63.6826 c -30.216,0 -54.8931,24.6776 -54.8931,54.8934 0,30.215 24.6771,54.893 54.8931,54.893 30.215,0 54.893,-24.678 54.893,-54.893 0,-30.2158 -24.678,-54.8934 -54.893,-54.8934 z m 0,4.7729 c 27.624,0 50.12,22.4962 50.12,50.1205 0,27.624 -22.496,50.12 -50.12,50.12 -27.624,0 -50.1207,-22.496 -50.1207,-50.12 0,-27.6243 22.4967,-50.1205 50.1207,-50.1205 z"
				/>
				<path
					id="path10"
					style="color:#000000;display:inline;fill:#000000;fill-opacity:1;stroke:none;stroke-linecap:round;stroke-linejoin:round;-inkscape-stroke:none"
					d="m 135.467,73.2295 c -25.045,0 -45.3473,20.3023 -45.3475,45.3465 0,12.027 4.7776,23.561 13.2815,32.065 8.505,8.505 20.039,13.282 32.066,13.282 12.026,0 23.561,-4.777 32.065,-13.282 8.504,-8.504 13.282,-20.038 13.282,-32.065 -0.001,-25.0442 -20.303,-45.3465 -45.347,-45.3465 z m 0,21.4793 c 6.33,-1e-4 12.4,2.5144 16.876,6.9902 4.476,4.476 6.991,10.547 6.991,16.877 0,6.33 -2.515,12.4 -6.991,16.876 -4.476,4.476 -10.546,6.99 -16.876,6.99 -13.182,0 -23.867,-10.685 -23.867,-23.866 0,-13.182 10.685,-23.8671 23.867,-23.8672 z"
				/>
				<path
					id="path2"
					style="color:#000000;display:inline;fill:#ffffff;fill-opacity:1;stroke:none;stroke-width:0.526317;stroke-linecap:round;stroke-linejoin:round;-inkscape-stroke:none; transform-origin: 50% 43.8%;"
					d="m 135.467,92.1172 c -14.613,0 -26.458,11.8458 -26.458,26.4578 -0.001,14.613 11.845,26.459 26.458,26.459 14.612,0 26.458,-11.846 26.458,-26.459 0,-14.612 -11.846,-26.4578 -26.458,-26.4578 z"
				/>
				<path
					id="path3"
					style="color:#000000;display:inline;fill:#000000;fill-opacity:1;stroke:none;stroke-width:0.473684;stroke-linecap:round;stroke-linejoin:round;-inkscape-stroke:none; transform-origin: 50% 43.8%;"
					d="m 135.467,94.7631 c -13.151,-10e-5 -23.813,10.6609 -23.813,23.8119 0,13.152 10.662,23.813 23.813,23.813 13.151,0 23.812,-10.661 23.812,-23.813 0,-13.151 -10.661,-23.812 -23.812,-23.8119 z"
				/>
				<path
					id="path21"
					style="fill:#ffffff; transform-origin: 50% 43.8%;"
					d="m 135.46719,68.455255 c -27.62397,0 -50.120975,22.496701 -50.120975,50.120975 0,27.62397 22.497005,50.11994 50.120975,50.11994 27.62397,0 50.11994,-22.49597 50.11994,-50.11994 0,-27.624274 -22.49597,-50.120975 -50.11994,-50.120975 z m 0,4.773869 c 0.69617,0 1.39017,0.01986 2.08256,0.05168 1.65427,2.392535 3.0346,4.870847 4.12171,7.397481 1.86006,-2.039461 3.98986,-3.935737 6.33812,-5.668388 7.31095,2.105124 14.04661,6.025269 19.52232,11.501107 0.49255,0.49256 0.96978,0.997586 1.43712,1.509986 -0.52217,2.861533 -1.29888,5.590224 -2.31665,8.144723 2.75715,-0.1266 5.60396,0.03882 8.4894,0.474389 3.68099,6.658158 5.67201,14.192758 5.67201,21.936128 0,0.6964 -0.0193,1.39047 -0.0512,2.08308 -2.3928,1.65455 -4.87145,3.03532 -7.39749,4.12171 2.03916,1.86012 3.93562,3.99025 5.66788,6.33863 -2.10528,7.31067 -6.02557,14.04575 -11.50111,19.52129 -0.49272,0.49278 -0.99793,0.97009 -1.5105,1.43764 -2.86136,-0.52209 -5.5898,-1.29828 -8.14421,-2.31562 0.12668,2.7567 -0.0389,5.60355 -0.47439,8.48888 -6.65807,3.68079 -14.19243,5.67098 -21.93561,5.67098 -0.69947,0 -1.39393,-0.0214 -2.08566,-0.0527 -1.65358,-2.39194 -3.03328,-4.86968 -4.12017,-7.3949 -1.86231,2.04157 -3.99467,3.94017 -6.34638,5.67407 -8.16026,-2.34662 -15.38057,-6.91177 -20.95117,-13.01574 0.52216,-2.8621 1.29869,-5.59125 2.31665,-8.14628 -2.76175,0.12708 -5.613396,-0.0386 -8.503874,-0.47594 -3.600759,-6.50132 -5.657019,-13.9767 -5.657019,-21.93509 0,-0.69653 0.01983,-1.39137 0.05168,-2.08411 2.392323,-1.65407 4.870438,-3.03404 7.395931,-4.1212 -2.038586,-1.8589 -3.934934,-3.98896 -5.666837,-6.33708 2.105059,-7.31101 6.024991,-14.046914 11.500589,-19.522836 0.49269,-0.492644 0.99797,-0.969693 1.5105,-1.437121 2.86153,0.522168 5.58971,1.298885 8.14421,2.316654 -0.12659,-2.756874 0.038,-5.603574 0.47335,-8.488888 6.65859,-3.681418 14.19364,-5.672522 21.9382,-5.672522 z"
				/>
			</g>
		</g>
	</g>
</svg>
